<svg xmlns="http://www.w3.org/2000/svg" width="462.9967" height="347.0119" viewBox="0 0 462.9967 347.0119">
  <g id="katman_2" data-name="katman 2">
    <g id="katman_1-2" data-name="katman 1">
      <path d="M460.845,3.7743c-5.4-7.4-11.7-2.3-17.2,1.6-5.9,4.2-11.8,8.4-17.7,12.7q-129.45,92.25-259,184.4c-2.5,1.7-6,3.9-8.5,3.4-11-2.4-12.3-1.9-14.5,9-10.4-1.5-11.9,0-12.6,10.8-9.7,4.9-19.1,8.9-27.6,14.1-15.7,9.7-30.9,20.2-46.5,30.2-15,9.7-30.2,19-45.1,28.8-7,4.6-13.5,10.6-11.9,20.1a34.3918,34.3918,0,0,0,21.2,26.8c11.1,4.6,19.1-3.5,24.9-11.6,22-31,52.4-52.9,82.2-75.2,5.8-4.3,12.4-7.6,18.6-11.4-1.5-1.5-3-3-4.5-4.6,11,3.9,14.1,2.2,17-7.3a33.6209,33.6209,0,0,0,11.7-8.1c2.9-3.3,3.9-8.7,7.2-11.1q81.6-58.65,163.7-116.8,55.65-39.6,111.3-79.4C459.245,16.0743,466.745,11.7743,460.845,3.7743Z"/>
    </g>
  </g>
</svg>
